<svg xmlns="http://www.w3.org/2000/svg" viewBox="0 0 32 32" fill="none"><rect width="32" height="32" rx="8" fill="#4020A0"/><path d="M16 8a8 8 0 00-6.6 12.6L8 25l4.5-1.3A8 8 0 1016 8zm0 14a6 6 0 01-3-1l-.2-.1-1.9.5.5-1.9-.1-.2A6 6 0 1116 22zm3.2-3.5c-.2-.1-1.3-.6-1.5-.7-.2-.1-.3-.1-.5.1-.1.2-.6.7-.7.8-.1.1-.2.1-.4 0-.2-.1-.8-.3-1.6-1s-1.2-1.2-1.3-1.4c-.1-.2 0-.3.1-.4l.3-.3c.1-.1.2-.2.2-.3.1-.1.1-.2.2-.3 0-.1 0-.2-.1-.3-.1-.1-.5-1.2-.7-1.6-.2-.3-.3-.3-.5-.3h-.4c-.1 0-.3 0-.4.2-.1.2-.6.6-.6 1.4 0 .8.6 1.6.6 1.7.1.1 1.1 1.8 2.7 2.5 1.6.8 1.6.6 1.9.5.3 0 .9-.3 1.1-.6.2-.3.2-.6.1-.7 0-.1-.2-.2-.4-.3z" fill="#fff"/></svg>
