<svg xmlns="http://www.w3.org/2000/svg" viewBox="0 0 64 40" fill="none">
  <rect width="64" height="40" rx="10" fill="#0077C5"/>
  <rect x="9" y="10" width="46" height="20" rx="4" fill="#fff"/>
  <path d="M20.3 26l2.2-12h4.1l2.1 12h-3.2l-.3-1.8H23l-.3 1.8h-3.2zm4.6-4.7l-.6-3.9-.6 3.9h1.2zm8.7 4.7l-1.6-12h3.5l1 8.2 4.2-8.2h4l-6.1 12h-3.5zm16-8.8h-3.4V26h-3.1V14h6.5c2.2 0 3.8 1.3 3.8 3.3 0 1.7-.9 2.8-2.4 3.2l2.4 5.6h-3.2l-1.9-5zm-.4-2.2c.9 0 1.4-.4 1.4-1.1 0-.7-.5-1.1-1.4-1.1h-2.9v2.2h2.9z" fill="#0077C5"/>
</svg>
