<svg xmlns="http://www.w3.org/2000/svg" viewBox="0 0 64 40" fill="none">
  <rect width="64" height="40" rx="10" fill="#172B85"/>
  <path d="M19.7 28L23.2 12h5.1l-3.5 16h-5.1zM28.4 28L32.1 12h4.8l2.8 10.9L43 12h4.9l-3.7 16h-4.7l-2.7-10-2.6 10h-4.8zM48.4 17.8c-.1-1.4 1.2-2.4 2.9-2.4 1 0 2 .2 2.9.6v-3.6c-1-.3-2.3-.5-3.5-.5-4.3 0-7.5 2.6-7.4 6.2 0 2.7 2.2 4.3 4 5.2 1.8 1 2.4 1.6 2.3 2.5-.1 1-1.1 1.6-2.6 1.6-1.7 0-3.2-.4-4.6-1v3.7c1.5.5 3.2.7 4.9.7 4.5 0 7.7-2.3 7.7-6 0-2.7-1.8-4.3-3.9-5.5-1.7-.9-2.4-1.4-2.3-2.3z" fill="#fff"/>
</svg>
