<svg xmlns="http://www.w3.org/2000/svg" viewBox="0 0 36 36" fill="none">
  <rect width="36" height="36" rx="12" fill="#1A1546"/>
  <path d="M23.7 16.3c-1 0-2-.3-2.8-.9v7.1c0 2.8-2.3 5-5 5s-5-2.2-5-5c0-2.7 2.2-4.9 4.9-5 0 0-1.5 0-2.3.6v3c0-.2 1.1-.5 1.6-.5 1.1 0 2 .9 2 2s-.9 2-2 2c-.4 0-1.1-.1-1.6-.7v3c.7.3 1.3.4 2 .4 3.4 0 6.2-2.8 6.2-6.2v-7c.8.7 1.9 1.2 3 1.3v-3.1c-.3 0-2-.1-3.2-1.4V9h-3.1v7.3c0 1.7-1.4 3-3 3-.6 0-1.2-.2-1.6-.5v3.1c.6.2 1.2.3 1.6.3 3.4 0 6.2-2.8 6.2-6.2v-1.7c.8.5 1.7.9 2.7.9v-3z" fill="#fff"/>
</svg>
