<svg xmlns="http://www.w3.org/2000/svg" viewBox="0 0 36 36" fill="none">
  <rect width="36" height="36" rx="12" fill="#1A1546"/>
  <path d="M18 9c-4.6 0-8.3 3.4-8.3 7.6 0 1.9.7 3.7 2.1 5L11 27l5.6-1.8c.7.1 1.3.2 1.9.2 4.6 0 8.3-3.4 8.3-7.6 0-4.2-3.7-7.6-8.3-7.6zm4.6 10.6c-.2.5-.9.8-1.5.9-.4.1-.9.1-1.4-.1-.3-.1-.6-.2-1-.4-.2-.1-.5-.2-.7-.4-1.2-.7-2.2-1.6-3-2.7-.3-.4-.5-.7-.7-1.1-.2-.4-.1-.9.2-1.3.2-.2.4-.5.6-.7.1-.1.1-.2.2-.3.1-.2.1-.3.1-.5 0-.2 0-.4-.1-.6-.1-.3-.2-.6-.4-.9-.3-.5-.7-.7-1.1-.6-.2 0-.4.1-.6.2-.4.3-.7.7-.9 1-.6.8-.8 1.7-.7 2.7 0 .6.2 1.1.5 1.7.7 1.5 1.8 2.8 3.1 3.9 1.1.9 2.4 1.5 3.7 1.8.4.1.8.1 1.2.1.4-.1.8-.2 1.1-.4.3-.2.6-.5.7-.9.1-.3.2-.7.1-1-.1-.8-.9-.9-.9-.9-.1 0-.3-.1-.4-.2z" fill="#36F0B2"/>
</svg>
